<svg width="45" height="45" fill="none" xmlns="http://www.w3.org/2000/svg"><path fill-rule="evenodd" clip-rule="evenodd" d="M22.5 0C10.0687 0 0 10.0687 0 22.5c0 9.9562 6.44062 18.3656 15.3844 21.3469 1.125.1968 1.5468-.4782 1.5468-1.0688 0-.5344-.0281-2.3062-.0281-4.1906-5.6531 1.0406-7.1156-1.3781-7.5656-2.6438-.25313-.6468-1.35-2.6437-2.30625-3.1781-.7875-.4219-1.9125-1.4625-.02812-1.4906 1.77187-.0281 3.03747 1.6312 3.45937 2.3062 2.025 3.4032 5.2594 2.4469 6.5531 1.8563.1969-1.4625.7875-2.4469 1.4344-3.0094-5.0063-.5625-10.2375-2.5031-10.2375-11.1094 0-2.4468.87188-4.4718 2.3063-6.0468-.225-.5625-1.01255-2.8688.2249-5.96253 0 0 1.8844-.59062 6.1875 2.30623 1.8-.5062 3.7126-.7594 5.6251-.7594 1.9125 0 3.825.2532 5.625.7594 4.3031-2.92498 6.1875-2.30623 6.1875-2.30623 1.2375 3.09373.45 5.40003.225 5.96253 1.4343 1.575 2.3062 3.5718 2.3062 6.0468 0 8.6344-5.2594 10.5469-10.2656 11.1094.8156.7031 1.5187 2.0531 1.5187 4.1625 0 3.0094-.0281 5.4281-.0281 6.1875 0 .5906.4219 1.2938 1.5469 1.0688C38.5594 40.8656 45 32.4281 45 22.5 45 10.0687 34.9313 0 22.5 0z" fill="#171515"/></svg>