<svg width="45" height="45" viewBox="0 0 75 75" fill="none" xmlns="http://www.w3.org/2000/svg">
<g clip-path="url(#clip0)">
<path d="M15.7682 68.9761L10.9326 14.7393H64.0674L59.2267 68.9676L37.4675 75L15.7682 68.9761Z" fill="#E44D26"/>
<path d="M37.5 70.3891L55.0825 65.5146L59.2192 19.174H37.5V70.3891Z" fill="#F16529"/>
<path d="M37.5 39.2896H28.6977L28.0898 32.4779H37.5V25.8259H20.8201L20.9793 27.6105L22.6143 45.9415H37.5V39.2896ZM37.5 56.5654L37.4708 56.5731L30.0625 54.5728L29.589 49.2675H22.9115L23.8434 59.712L37.4694 63.4947L37.5 63.4862V56.5654Z" fill="#EBEBEB"/>
<path d="M37.477 39.2896V45.9415H45.6681L44.896 54.5685L37.477 56.5709V63.4915L51.1138 59.712L51.2139 58.5882L52.777 41.0758L52.9393 39.2896H51.1468H37.477ZM37.477 25.8259V32.4779H53.5446L53.678 30.9828L53.9811 27.6105L54.1402 25.8259H37.477Z" fill="white"/>
</g>
<defs>
<clipPath id="clip0">
<rect width="75" height="75" fill="white"/>
</clipPath>
</defs>
</svg>
