<svg viewBox="0 0 456 284" xmlns="http://www.w3.org/2000/svg"  width="45" height="45" xmlns:xlink="http://www.w3.org/1999/xlink"><g fill="#699F63"><path d="M225.953 279.054c-1.46 0-2.912-.381-4.19-1.121l-13.339-7.892c-1.991-1.115-1.018-1.509-.362-1.738 2.657-.922 3.195-1.135 6.031-2.743.295-.166.687-.103.992.076l10.247 6.084c.372.206.896.206 1.237 0l39.95-23.058c.372-.212.61-.64.61-1.081v-46.103c0-.451-.239-.872-.62-1.101l-39.933-23.038c-.368-.216-.859-.216-1.231 0l-39.923 23.045c-.388.222-.634.657-.634 1.094v46.103c0 .441.245.859.63 1.068l10.944 6.323c5.938 2.969 9.573-.528 9.573-4.041v-45.52c0-.643.518-1.151 1.161-1.151h5.066c.634 0 1.158.508 1.158 1.151v45.52c0 7.925-4.316 12.47-11.829 12.47-2.309 0-4.127 0-9.202-2.501l-10.476-6.031c-2.587-1.496-4.19-4.293-4.19-7.288v-46.103c0-2.995 1.602-5.792 4.19-7.281l39.95-23.085c2.528-1.43 5.888-1.43 8.396 0l39.947 23.085c2.587 1.496 4.196 4.286 4.196 7.281v46.103c0 2.995-1.609 5.782-4.196 7.288l-39.947 23.065c-1.277.739-2.726 1.12-4.206 1.12z"/><path d="M238.293 247.292c-17.482 0-21.144-8.024-21.144-14.755 0-.64.514-1.151 1.155-1.151h5.165c.577 0 1.058.415 1.148.979.78 5.258 3.105 7.912 13.677 7.912 8.416 0 11.999-1.904 11.999-6.369 0-2.574-1.015-4.485-14.095-5.766-10.93-1.081-17.691-3.496-17.691-12.241 0-8.061 6.794-12.868 18.186-12.868 12.798 0 19.131 4.442 19.933 13.972.03.328-.086.644-.305.889-.219.229-.524.368-.846.368h-5.185c-.537 0-1.012-.381-1.121-.902-1.244-5.533-4.269-7.301-12.476-7.301-9.189 0-10.257 3.201-10.257 5.599 0 2.906 1.261 3.752 13.667 5.394 12.277 1.622 18.109 3.921 18.109 12.549-.002 8.705-7.26 13.691-19.919 13.691z"/></g><path d="M295.899 198.941c0 4.236-3.463 7.699-7.699 7.699-4.197 0-7.699-3.422-7.699-7.699 0-4.359 3.586-7.701 7.699-7.701 4.156 0 7.699 3.342 7.699 7.701zm-14.155-.022c0 3.586 2.892 6.479 6.435 6.479 3.586 0 6.479-2.954 6.479-6.479 0-3.584-2.932-6.436-6.479-6.436-3.503.001-6.435 2.81-6.435 6.436zm3.563-4.297h2.976c1.018 0 3.015 0 3.015 2.282 0 1.589-1.018 1.914-1.632 2.118 1.184.082 1.264.856 1.426 1.956.083.692.206 1.874.448 2.281h-1.831c-.043-.406-.328-2.607-.328-2.728-.119-.49-.285-.733-.895-.733h-1.506v3.461h-1.672v-8.637h-.001zm1.632 3.788h1.343c1.098 0 1.304-.773 1.304-1.221 0-1.183-.816-1.183-1.264-1.183h-1.383v2.404z" fill="#699F63"/><path d="M102.243 98.677c0-1.841-.969-3.533-2.558-4.445L57.33 69.857c-.716-.421-1.519-.64-2.332-.674h-.438c-.809.033-1.612.252-2.339.674L9.866 94.232c-1.579.912-2.561 2.604-2.561 4.445l.093 65.635c0 .912.474 1.762 1.277 2.209.786.471 1.758.471 2.541 0l25.172-14.414c1.592-.945 2.561-2.614 2.561-4.438v-30.665c0-1.828.968-3.52 2.554-4.428l10.718-6.173c.799-.461 1.672-.687 2.564-.687.872 0 1.768.226 2.544.687l10.715 6.173c1.586.909 2.558 2.601 2.558 4.428v30.665c0 1.824.982 3.503 2.564 4.438l25.165 14.414c.789.471 1.775.471 2.558 0 .78-.448 1.271-1.297 1.271-2.209l.083-65.635zM306.04 8.451c-.793-.441-1.76-.431-2.543.028-.781.46-1.262 1.299-1.262 2.206v65c0 .639-.342 1.231-.894 1.551-.554.32-1.237.32-1.792 0l-10.608-6.112c-1.583-.912-3.53-.91-5.112.002l-42.372 24.453c-1.584.914-2.559 2.603-2.559 4.43v48.916c0 1.828.975 3.516 2.558 4.432l42.37 24.471c1.584.914 3.534.914 5.118 0l42.376-24.471c1.583-.915 2.558-2.604 2.558-4.432V26.989c0-1.854-1.003-3.565-2.624-4.469L306.04 8.451zm-3.931 124.402c0 .456-.244.879-.64 1.106l-14.548 8.386c-.395.227-.882.227-1.277 0l-14.548-8.386c-.396-.227-.64-.65-.64-1.106v-16.799c0-.456.244-.879.639-1.108l14.548-8.403c.396-.229.884-.229 1.28 0l14.548 8.403c.395.229.639.652.639 1.108l-.001 16.799zM447.131 115.615c1.576-.915 2.546-2.601 2.546-4.424V99.337c0-1.823-.97-3.51-2.548-4.425L405.03 70.469c-1.584-.921-3.54-.922-5.127-.007l-42.356 24.453c-1.583.914-2.558 2.602-2.558 4.43v48.903c0 1.839.987 3.536 2.584 4.445l42.093 23.985c1.552.886 3.455.896 5.017.028l25.46-14.151c.808-.449 1.311-1.297 1.315-2.219.007-.922-.484-1.776-1.284-2.236l-42.625-24.465c-.796-.456-1.285-1.304-1.285-2.22v-15.326c0-.914.487-1.76 1.28-2.216l13.266-7.648c.789-.456 1.765-.456 2.554 0l13.273 7.648c.793.456 1.28 1.302 1.28 2.216v12.058c0 .916.49 1.762 1.282 2.218.793.458 1.77.454 2.561-.005l25.371-14.745z" fill="#333"/><path d="M401.842 113.324c.304-.176.678-.176.982 0l8.13 4.69c.304.176.491.499.491.851v9.388c0 .352-.187.675-.491.851l-8.13 4.69c-.304.176-.678.176-.982 0l-8.124-4.69c-.304-.176-.491-.499-.491-.851v-9.388c0-.352.187-.675.491-.851l8.124-4.69z" fill="#699F63"/><g><linearGradient gradientTransform="matrix(1 0 0 -1 0 288.11)" gradientUnits="userSpaceOnUse" id="a" x1="187.702" x2="149.6371" y1="199.2852" y2="121.6329"><stop offset="0" stop-color="#41873f"/><stop offset=".3288" stop-color="#418b3d"/><stop offset=".6352" stop-color="#419637"/><stop offset=".9319" stop-color="#3fa92d"/><stop offset="1" stop-color="#3fae2a"/></linearGradient><path d="M173.12 70.717c-1.574-.909-3.514-.909-5.087 0l-42.134 24.314c-1.576.909-2.546 2.588-2.546 4.408v48.666c0 1.818.97 3.497 2.544 4.408l42.134 24.334c1.575.909 3.515.909 5.091 0l42.124-24.334c1.574-.91 2.543-2.59 2.543-4.408V99.437c0-1.818-.97-3.497-2.545-4.406L173.12 70.717z" fill="url(#a)"/><defs><path d="M173.12 70.717c-1.574-.909-3.514-.909-5.087 0l-42.134 24.314c-1.576.909-2.546 2.588-2.546 4.408v48.666c0 1.818.97 3.497 2.544 4.408l42.134 24.334c1.575.909 3.515.909 5.091 0l42.124-24.334c1.574-.91 2.543-2.59 2.543-4.408V99.437c0-1.818-.97-3.497-2.545-4.406L173.12 70.717z" id="b"/></defs><clipPath id="c"><use overflow="visible" xlink:href="#b"/></clipPath><g clip-path="url(#c)"><path d="M167.944 70.717l-42.222 24.314c-1.576.909-2.722 2.588-2.722 4.408v48.666c0 1.203.514 2.339 1.313 3.238l47.44-81.152c-1.274-.314-2.652-.142-3.809.526zM171.988 177.339c.41-.113.81-.275 1.186-.492l42.177-24.334c1.574-.91 2.649-2.59 2.649-4.408V99.437c0-1.338-.598-2.598-1.54-3.534l-44.472 81.436z" fill="none"/><linearGradient gradientTransform="matrix(1 0 0 -1 0 288.11)" gradientUnits="userSpaceOnUse" id="d" x1="164.1574" x2="270.9646" y1="158.647" y2="237.5619"><stop offset=".1376" stop-color="#41873f"/><stop offset=".4032" stop-color="#54a044"/><stop offset=".7136" stop-color="#66b848"/><stop offset=".9081" stop-color="#6cc04a"/></linearGradient><path d="M215.327 95.031l-42.252-24.314c-.417-.241-.863-.413-1.322-.526l-47.44 81.152c.409.46.888.861 1.42 1.169l42.323 24.334c1.199.692 2.624.854 3.931.492l44.473-81.436c-.338-.334-.717-.631-1.133-.871z" fill="url(#d)"/></g><g><defs><path d="M173.12 70.717c-1.574-.909-3.514-.909-5.087 0l-42.134 24.314c-1.576.909-2.546 2.588-2.546 4.408v48.666c0 1.818.97 3.497 2.544 4.408l42.134 24.334c1.575.909 3.515.909 5.091 0l42.124-24.334c1.574-.91 2.543-2.59 2.543-4.408V99.437c0-1.818-.97-3.497-2.545-4.406L173.12 70.717z" id="e"/></defs><clipPath id="f"><use overflow="visible" xlink:href="#e"/></clipPath><g clip-path="url(#f)"><path d="M218 148.105V99.437c0-1.818-1.098-3.497-2.673-4.406l-42.252-24.314c-.485-.28-1.011-.463-1.551-.571l46.317 79.128c.099-.379.159-.769.159-1.169zM125.722 95.031c-1.576.909-2.722 2.588-2.722 4.408v48.666c0 1.818 1.16 3.497 2.733 4.408l42.323 24.334c.995.574 2.146.784 3.256.632l-45.337-82.594-.253.146z" fill="none"/><linearGradient gradientTransform="matrix(1 0 0 -1 0 288.11)" gradientUnits="userSpaceOnUse" id="g" x1="121.8623" x2="219.2793" y1="226.1655" y2="226.1655"><stop offset=".0919" stop-color="#6cc04a"/><stop offset=".2864" stop-color="#66b848"/><stop offset=".5968" stop-color="#54a044"/><stop offset=".8624" stop-color="#41873f"/></linearGradient><path fill="url(#g)" d="M166.627 61.779l-.58.331h.774z"/><linearGradient gradientTransform="matrix(1 0 0 -1 0 288.11)" gradientUnits="userSpaceOnUse" id="h" x1="121.8623" x2="219.2793" y1="164.3476" y2="164.3476"><stop offset=".0919" stop-color="#6cc04a"/><stop offset=".2864" stop-color="#66b848"/><stop offset=".5968" stop-color="#54a044"/><stop offset=".8624" stop-color="#41873f"/></linearGradient><path d="M215.351 152.513c1.228-.71 2.144-1.891 2.491-3.238l-46.317-79.128c-1.209-.241-2.492-.058-3.581.571l-41.968 24.168 45.337 82.594c.647-.088 1.281-.298 1.861-.632l42.177-24.335z" fill="url(#h)"/><linearGradient gradientTransform="matrix(1 0 0 -1 0 288.11)" gradientUnits="userSpaceOnUse" id="i" x1="121.8623" x2="219.2793" y1="136.5375" y2="136.5375"><stop offset=".0919" stop-color="#6cc04a"/><stop offset=".2864" stop-color="#66b848"/><stop offset=".5968" stop-color="#54a044"/><stop offset=".8624" stop-color="#41873f"/></linearGradient><path fill="url(#i)" d="M219.279 151.73l-.279-.477v.639z"/><linearGradient gradientTransform="matrix(1 0 0 -1 0 288.11)" gradientUnits="userSpaceOnUse" id="j" x1="121.8623" x2="219.2793" y1="123.968" y2="123.968"><stop offset=".0919" stop-color="#6cc04a"/><stop offset=".2864" stop-color="#66b848"/><stop offset=".5968" stop-color="#54a044"/><stop offset=".8624" stop-color="#41873f"/></linearGradient><path d="M215.351 152.513l-42.177 24.334c-.58.335-1.214.544-1.861.632l.84 1.53L219 151.892v-.639l-1.158-1.978c-.347 1.347-1.263 2.527-2.491 3.238z" fill="url(#j)"/><linearGradient gradientTransform="matrix(1 0 0 -1 0 288.11)" gradientUnits="userSpaceOnUse" id="k" x1="233.4718" x2="173.3912" y1="201.5876" y2="79.0232"><stop offset="0" stop-color="#41873f"/><stop offset=".3288" stop-color="#418b3d"/><stop offset=".6352" stop-color="#419637"/><stop offset=".9319" stop-color="#3fa92d"/><stop offset="1" stop-color="#3fae2a"/></linearGradient><path d="M215.351 152.513l-42.177 24.334c-.58.335-1.214.544-1.861.632l.84 1.53L219 151.892v-.639l-1.158-1.978c-.347 1.347-1.263 2.527-2.491 3.238z" fill="url(#k)"/></g></g></g></svg>