<svg width="185" height="185" fill="none" xmlns="http://www.w3.org/2000/svg"><circle cx="182.5" cy="182.5" r="2.5" transform="rotate(-180 182.5 182.5)" fill="#B8CCE0"/><circle cx="162.5" cy="182.5" r="2.5" transform="rotate(-180 162.5 182.5)" fill="#B8CCE0"/><circle cx="142.5" cy="182.5" r="2.5" transform="rotate(-180 142.5 182.5)" fill="#B8CCE0"/><circle cx="122.5" cy="182.5" r="2.5" transform="rotate(-180 122.5 182.5)" fill="#B8CCE0"/><circle cx="102.5" cy="182.5" r="2.5" transform="rotate(-180 102.5 182.5)" fill="#B8CCE0"/><circle cx="82.5" cy="182.5" r="2.5" transform="rotate(-180 82.5 182.5)" fill="#B8CCE0"/><circle cx="62.5" cy="182.5" r="2.5" transform="rotate(-180 62.5 182.5)" fill="#B8CCE0"/><circle cx="42.5" cy="182.5" r="2.5" transform="rotate(-180 42.5 182.5)" fill="#B8CCE0"/><circle cx="22.5" cy="182.5" r="2.5" transform="rotate(-180 22.5 182.5)" fill="#B8CCE0"/><circle cx="2.5" cy="182.5" r="2.5" transform="rotate(-180 2.5 182.5)" fill="#B8CCE0"/><circle cx="162.5" cy="162.5" r="2.5" transform="rotate(-180 162.5 162.5)" fill="#B8CCE0"/><circle cx="142.5" cy="162.5" r="2.5" transform="rotate(-180 142.5 162.5)" fill="#B8CCE0"/><circle cx="122.5" cy="162.5" r="2.5" transform="rotate(-180 122.5 162.5)" fill="#B8CCE0"/><circle cx="102.5" cy="162.5" r="2.5" transform="rotate(-180 102.5 162.5)" fill="#B8CCE0"/><circle cx="82.5" cy="162.5" r="2.5" transform="rotate(-180 82.5 162.5)" fill="#B8CCE0"/><circle cx="62.5" cy="162.5" r="2.5" transform="rotate(-180 62.5 162.5)" fill="#B8CCE0"/><circle cx="42.5" cy="162.5" r="2.5" transform="rotate(-180 42.5 162.5)" fill="#B8CCE0"/><circle cx="22.5" cy="162.5" r="2.5" transform="rotate(-180 22.5 162.5)" fill="#B8CCE0"/><circle cx="2.5" cy="162.5" r="2.5" transform="rotate(-180 2.5 162.5)" fill="#B8CCE0"/><circle cx="142.5" cy="142.5" r="2.5" transform="rotate(-180 142.5 142.5)" fill="#B8CCE0"/><circle cx="122.5" cy="142.5" r="2.5" transform="rotate(-180 122.5 142.5)" fill="#B8CCE0"/><circle cx="102.5" cy="142.5" r="2.5" transform="rotate(-180 102.5 142.5)" fill="#B8CCE0"/><circle cx="82.5" cy="142.5" r="2.5" transform="rotate(-180 82.5 142.5)" fill="#B8CCE0"/><circle cx="62.5" cy="142.5" r="2.5" transform="rotate(-180 62.5 142.5)" fill="#B8CCE0"/><circle cx="42.5" cy="142.5" r="2.5" transform="rotate(-180 42.5 142.5)" fill="#B8CCE0"/><circle cx="22.5" cy="142.5" r="2.5" transform="rotate(-180 22.5 142.5)" fill="#B8CCE0"/><circle cx="2.5" cy="142.5" r="2.5" transform="rotate(-180 2.5 142.5)" fill="#B8CCE0"/><circle cx="122.5" cy="122.5" r="2.5" transform="rotate(-180 122.5 122.5)" fill="#B8CCE0"/><circle cx="102.5" cy="122.5" r="2.5" transform="rotate(-180 102.5 122.5)" fill="#B8CCE0"/><circle cx="82.5" cy="122.5" r="2.5" transform="rotate(-180 82.5 122.5)" fill="#B8CCE0"/><circle cx="62.5" cy="122.5" r="2.5" transform="rotate(-180 62.5 122.5)" fill="#B8CCE0"/><circle cx="42.5" cy="122.5" r="2.5" transform="rotate(-180 42.5 122.5)" fill="#B8CCE0"/><circle cx="22.5" cy="122.5" r="2.5" transform="rotate(-180 22.5 122.5)" fill="#B8CCE0"/><circle cx="2.5" cy="122.5" r="2.5" transform="rotate(-180 2.5 122.5)" fill="#B8CCE0"/><circle cx="102.5" cy="102.5" r="2.5" transform="rotate(-180 102.5 102.5)" fill="#B8CCE0"/><circle cx="82.5" cy="102.5" r="2.5" transform="rotate(-180 82.5 102.5)" fill="#B8CCE0"/><circle cx="62.5" cy="102.5" r="2.5" transform="rotate(-180 62.5 102.5)" fill="#B8CCE0"/><circle cx="42.5" cy="102.5" r="2.5" transform="rotate(-180 42.5 102.5)" fill="#B8CCE0"/><circle cx="22.5" cy="102.5" r="2.5" transform="rotate(-180 22.5 102.5)" fill="#B8CCE0"/><circle cx="2.5" cy="102.5" r="2.5" transform="rotate(-180 2.5 102.5)" fill="#B8CCE0"/><circle cx="82.5" cy="82.5" r="2.5" transform="rotate(-180 82.5 82.5)" fill="#B8CCE0"/><circle cx="62.5" cy="82.5" r="2.5" transform="rotate(-180 62.5 82.5)" fill="#B8CCE0"/><circle cx="42.5" cy="82.5" r="2.5" transform="rotate(-180 42.5 82.5)" fill="#B8CCE0"/><circle cx="22.5" cy="82.5" r="2.5" transform="rotate(-180 22.5 82.5)" fill="#B8CCE0"/><circle cx="2.5" cy="82.5" r="2.5" transform="rotate(-180 2.5 82.5)" fill="#B8CCE0"/><circle cx="62.5" cy="62.5" r="2.5" transform="rotate(-180 62.5 62.5)" fill="#B8CCE0"/><circle cx="42.5" cy="62.5" r="2.5" transform="rotate(-180 42.5 62.5)" fill="#B8CCE0"/><circle cx="22.5" cy="62.5" r="2.5" transform="rotate(-180 22.5 62.5)" fill="#B8CCE0"/><circle cx="2.5" cy="62.5" r="2.5" transform="rotate(-180 2.5 62.5)" fill="#B8CCE0"/><circle cx="42.5" cy="42.5" r="2.5" transform="rotate(-180 42.5 42.5)" fill="#B8CCE0"/><circle cx="22.5" cy="42.5" r="2.5" transform="rotate(-180 22.5 42.5)" fill="#B8CCE0"/><circle cx="2.5" cy="42.5" r="2.5" transform="rotate(-180 2.5 42.5)" fill="#B8CCE0"/><circle cx="22.5" cy="22.5" r="2.5" transform="rotate(-180 22.5 22.5)" fill="#B8CCE0"/><circle cx="2.5" cy="22.5" r="2.5" transform="rotate(-180 2.5 22.5)" fill="#B8CCE0"/><circle cx="2.5" cy="2.5" r="2.5" transform="rotate(-180 2.5 2.5)" fill="#B8CCE0"/></svg>