<svg xmlns="http://www.w3.org/2000/svg" width="331.049" height="147.318" viewBox="0 0 87.59 38.978"><g font-weight="300" font-size="57.069" font-family="Source Sans Pro" letter-spacing="0" word-spacing="0"><path style="line-height:1.25;-inkscape-font-specification:'Source Sans Pro, Light';font-variant-ligatures:normal;font-variant-caps:normal;font-variant-numeric:normal;font-feature-settings:normal;text-align:start" d="M62.417 0c-2.397 0-4.584.456-6.563 1.37-1.94.874-3.614 2.168-5.021 3.88-1.408 1.674-2.511 3.71-3.31 6.106a23.89 23.89 0 00-.944 4.547c.912.03 1.823.06 2.736.087.15-1.3.387-2.523.719-3.663.608-2.093 1.483-3.862 2.625-5.308 1.18-1.484 2.587-2.625 4.223-3.424 1.674-.799 3.538-1.198 5.593-1.198 1.712 0 3.253.361 4.622 1.084a11.626 11.626 0 013.595 2.797l1.541-1.77c-.989-1.18-2.32-2.225-3.994-3.139C66.565.456 64.624 0 62.417 0zM27.513.685l-5.345 15.182c.841-.057 1.683-.105 2.522-.148.706-2.082 1.385-4.1 2.024-6.017.684-2.055 1.35-4.242 1.997-6.563h.228c.647 2.32 1.313 4.508 1.998 6.563.613 1.84 1.268 3.784 1.943 5.777l1.394-.02 1.08.041L30.137.685z" fill="#333"/><path style="line-height:1.25;-inkscape-font-specification:'Source Sans Pro, Light';font-variant-ligatures:normal;font-variant-caps:normal;font-variant-numeric:normal;font-feature-settings:normal;text-align:start" d="M87.59 16.986c-2.649.371-5.264.652-7.848.857-10.666.846-20.803.43-30.704.042-9.9-.39-19.564-.753-29.323.172-1.22.116-2.441.252-3.665.41-5.285.684-10.618 1.795-16.05 3.525a110.03 110.03 0 013.004-.33c5.8-.55 11.553-.648 17.32-.557l-6.051 17.188h2.625l4.451-12.898.799-2.225.687-2.011c3.219.078 6.444.198 9.687.326l2.437.095.543 1.59.742 2.225 4.394 12.898h2.74l-5.851-16.619c2.962.107 5.942.198 8.951.238.156 2.028.502 3.914 1.045 5.652.76 2.397 1.826 4.452 3.195 6.164a14.644 14.644 0 005.022 3.88c1.94.913 4.071 1.37 6.392 1.37 2.435 0 4.546-.476 6.335-1.427 1.788-.95 3.405-2.263 4.85-3.938l-1.54-1.655c-1.37 1.522-2.816 2.683-4.338 3.482-1.522.76-3.252 1.141-5.193 1.141-2.016 0-3.842-.4-5.478-1.199-1.598-.837-2.968-1.997-4.11-3.48-1.14-1.484-2.016-3.273-2.624-5.365-.407-1.423-.675-2.96-.81-4.603 4.53.01 9.127-.116 13.825-.488 7.85-.623 15.984-1.935 24.541-4.46zm-54.421 2.31c10.774.023 21.509.459 32.35.888-15.76.614-31.32-.011-47.081-.624 4.927-.2 9.833-.274 14.73-.264z" fill="#00aad4"/></g></svg>