<svg width="45" height="45" viewBox="0 0 75 75" fill="none" xmlns="http://www.w3.org/2000/svg">
<path d="M64.0674 14.7393L59.2267 68.9676L37.4675 75L15.7682 68.9761L10.9326 14.7393H64.0674Z" fill="#264DE4"/>
<path d="M55.0825 65.5146L59.2192 19.174H37.5V70.3891L55.0825 65.5146Z" fill="#2965F1"/>
<path d="M22.0181 39.2896L22.6143 45.9415H37.5V39.2896H22.0181ZM37.5 25.8259H20.8201L21.4248 32.4779H37.5V25.8259ZM37.5 63.4862V56.5654L37.4708 56.5731L30.0625 54.5728L29.589 49.2675H22.9115L23.8434 59.712L37.4694 63.4947L37.5 63.4862Z" fill="#EBEBEB"/>
<path d="M45.6681 45.9415L44.896 54.5685L37.477 56.5709V63.4915L51.1138 59.712L51.2139 58.5882L52.777 41.0758L52.9393 39.2896L54.1402 25.8259H37.477V32.4779H46.8502L46.245 39.2896H37.477V45.9415H45.6681Z" fill="white"/>
</svg>
