<svg width="60" height="60" viewBox="0 0 75 75" fill="none" xmlns="http://www.w3.org/2000/svg">
<path d="M73.5852 34.1592L40.8399 1.41467C39.9341 0.508868 38.7055 0 37.4245 0C36.1435 0 34.9149 0.508868 34.0091 1.41467L27.2101 8.21546L35.8349 16.8405C36.8487 16.4957 37.9388 16.4417 38.9817 16.6848C40.0246 16.9279 40.9785 17.4583 41.7353 18.2159C42.4971 18.9778 43.0289 19.9389 43.27 20.989C43.511 22.0392 43.4516 23.136 43.0983 24.1539L51.4122 32.4672C52.4301 32.1138 53.527 32.0544 54.5772 32.2956C55.6274 32.5368 56.5883 33.069 57.3501 33.8311C58.4053 34.9139 58.9915 36.3688 58.9817 37.8808C58.9719 39.3927 58.3668 40.8399 57.2975 41.9089C56.2282 42.9778 54.7809 43.5825 53.269 43.5919C51.7571 43.6013 50.3023 43.0146 49.2199 41.959C48.4182 41.1567 47.8718 40.135 47.6494 39.0228C47.427 37.9105 47.5387 36.7573 47.9703 35.7084L40.2163 27.9551V48.3582C40.965 48.7268 41.6245 49.254 42.1489 49.9032C42.6733 50.5523 43.0501 51.3079 43.253 52.1174C43.4559 52.9268 43.4802 53.7708 43.324 54.5906C43.1679 55.4104 42.8351 56.1863 42.3488 56.8645C41.8626 57.5427 41.2345 58.1069 40.5081 58.5178C39.7818 58.9287 38.9748 59.1766 38.143 59.2441C37.3112 59.3117 36.4747 59.1973 35.6917 58.9089C34.9086 58.6205 34.1977 58.1651 33.6083 57.5743C32.9385 56.9047 32.4446 56.08 32.1703 55.1735C31.8961 54.267 31.8501 53.3068 32.0364 52.3782C32.2228 51.4496 32.6357 50.5815 33.2384 49.851C33.8411 49.1205 34.6151 48.5502 35.4913 48.1909V27.5976C34.7897 27.3098 34.1519 26.8861 33.6148 26.3508C33.0776 25.8154 32.6518 25.179 32.3617 24.4783C32.0716 23.7776 31.9231 23.0265 31.9247 22.2681C31.9263 21.5097 32.078 20.7592 32.371 20.0597L23.8686 11.5555L1.41477 34.0074C0.508896 34.9135 0 36.1424 0 37.4237C0 38.705 0.508896 39.9338 1.41477 40.84L34.1617 73.5853C35.0676 74.4911 36.2961 75 37.5771 75C38.8581 75 40.0867 74.4911 40.9925 73.5853L73.5852 40.9918C74.4911 40.0857 75 38.8568 75 37.5755C75 36.2942 74.4911 35.0653 73.5852 34.1592V34.1592Z" fill="#F05133"/>
</svg>
