<svg width="45" height="45" viewBox="0 0 75 75" fill="none" xmlns="http://www.w3.org/2000/svg">
<g clip-path="url(#clip0)">
<mask id="mask0" mask-type="alpha" maskUnits="userSpaceOnUse" x="0" y="0" width="75" height="75">
<path fill-rule="evenodd" clip-rule="evenodd" d="M53.1838 74.4878C53.7806 74.7206 54.4189 74.828 55.059 74.8034C55.6991 74.7788 56.3273 74.6227 56.9045 74.3449L72.3457 66.9149C73.1409 66.532 73.8119 65.9324 74.2815 65.185C74.7511 64.4377 75.0001 63.5729 75 62.6903V12.3099C75 10.5082 73.9681 8.86637 72.3457 8.08531L56.9045 0.655624C56.032 0.235864 55.0506 0.0976998 54.0961 0.260254C53.1416 0.422808 52.2612 0.878042 51.5768 1.56295L22.0163 28.5313L9.14031 18.7576C8.55949 18.3166 7.84259 18.0928 7.11404 18.1252C6.38548 18.1576 5.69125 18.444 5.15184 18.9348L1.02244 22.6913C-0.339275 23.9296 -0.34074 26.0721 1.01922 27.3126L12.1854 37.5L1.01893 47.6874C-0.341033 48.9281 -0.339568 51.0703 1.02215 52.3089L5.15213 56.0654C5.69149 56.5561 6.38564 56.8426 7.11413 56.875C7.84262 56.9075 8.55948 56.6838 9.14031 56.2429L22.0163 46.4689L51.5768 73.4376C52.0338 73.8953 52.5811 74.253 53.1838 74.4878ZM56.2614 20.4741L33.8317 37.5L56.2614 54.5258V20.4741Z" fill="white"/>
</mask>
<g mask="url(#mask0)">
<path d="M72.3463 8.09761L56.8931 0.657078C56.0203 0.236876 55.0385 0.0983343 54.0836 0.260624C53.1286 0.422914 52.2477 0.878012 51.5628 1.56294L0.974421 47.6879C-0.386419 48.9287 -0.384954 51.0709 0.977643 52.3095L5.10997 56.066C5.64983 56.5568 6.34441 56.8432 7.07331 56.8756C7.8022 56.9081 8.51947 56.6844 9.10079 56.2435L70.021 10.0277C72.0648 8.47759 75.0003 9.93511 75.0003 12.5003V12.321C75.0003 11.4386 74.7512 10.5741 74.2817 9.827C73.8122 9.07985 73.1413 8.48041 72.3463 8.09761Z" fill="#0065A9"/>
<g filter="url(#filter0_d)">
<path d="M72.3463 66.9029L56.8931 74.3434C56.0203 74.7635 55.0385 74.902 54.0836 74.7397C53.1287 74.5774 52.2478 74.1224 51.5628 73.4376L0.974421 27.3126C-0.386419 26.0722 -0.384954 23.9297 0.977643 22.691L5.10997 18.9346C5.64986 18.4438 6.34446 18.1574 7.07336 18.125C7.80226 18.0927 8.51951 18.3163 9.10079 18.7573L70.021 64.9725C72.0648 66.5229 75.0003 65.0654 75.0003 62.4999V62.6795C75.0003 63.5619 74.7512 64.4264 74.2817 65.1735C73.8122 65.9206 73.1413 66.5201 72.3463 66.9029Z" fill="#007ACC"/>
</g>
<g filter="url(#filter1_d)">
<path d="M56.8934 74.3446C56.0203 74.7645 55.0385 74.9027 54.0835 74.7402C53.1285 74.5777 52.2475 74.1225 51.5625 73.4376C53.2922 75.1673 56.25 73.9421 56.25 71.4958V3.5042C56.25 1.05791 53.2922 -0.16728 51.5625 1.56241C52.2475 0.877416 53.1284 0.422175 54.0834 0.259632C55.0384 0.0970889 56.0203 0.235275 56.8934 0.655083L72.3439 8.08594C73.1394 8.46847 73.8107 9.06784 74.2806 9.81506C74.7505 10.5623 74.9999 11.427 75 12.3097V62.69C75 63.5728 74.7507 64.4377 74.2808 65.185C73.8109 65.9323 73.1395 66.5318 72.3439 66.9144L56.8934 74.3443V74.3446Z" fill="#1F9CF0"/>
</g>
<path opacity="0.25" fill-rule="evenodd" clip-rule="evenodd" d="M53.1387 74.4882C53.7355 74.7208 54.3738 74.8282 55.0138 74.8036C55.6538 74.779 56.282 74.623 56.8591 74.3452L72.3003 66.915C73.0956 66.5322 73.7667 65.9326 74.2363 65.1853C74.706 64.438 74.955 63.5733 74.9549 62.6906V12.3103C74.9549 10.5085 73.9231 8.86671 72.3006 8.08565L56.8591 0.655964C55.9867 0.236167 55.0053 0.0979548 54.0508 0.260456C53.0963 0.422958 52.2159 0.878137 51.5315 1.563L21.971 28.5317L9.09498 18.7579C8.51418 18.317 7.79734 18.0933 7.06885 18.1257C6.34036 18.1581 5.64619 18.4444 5.10679 18.9352L0.977106 22.6913C-0.384612 23.93 -0.386077 26.0722 0.973884 27.3129L12.1401 37.5003L0.973884 47.6877C-0.386077 48.9284 -0.384612 51.0706 0.977106 52.3093L5.10709 56.0657C5.64646 56.5566 6.34067 56.8431 7.06923 56.8755C7.79779 56.9079 8.51471 56.6842 9.09556 56.2433L21.9715 46.4692L51.5318 73.4379C51.9889 73.8957 52.5362 74.2534 53.139 74.4882H53.1387ZM56.2164 20.4744L33.7867 37.5003L56.2164 54.5262V20.4744Z" fill="url(#paint0_linear)"/>
</g>
</g>
<defs>
<filter id="filter0_d" x="-21.3793" y="-3.21205" width="117.714" height="99.3518" filterUnits="userSpaceOnUse" color-interpolation-filters="sRGB">
<feFlood flood-opacity="0" result="BackgroundImageFix"/>
<feColorMatrix in="SourceAlpha" type="matrix" values="0 0 0 0 0 0 0 0 0 0 0 0 0 0 0 0 0 0 127 0"/>
<feOffset/>
<feGaussianBlur stdDeviation="10.667"/>
<feColorMatrix type="matrix" values="0 0 0 0 0 0 0 0 0 0 0 0 0 0 0 0 0 0 0.25 0"/>
<feBlend mode="overlay" in2="BackgroundImageFix" result="effect1_dropShadow"/>
<feBlend mode="normal" in="SourceGraphic" in2="effect1_dropShadow" result="shape"/>
</filter>
<filter id="filter1_d" x="30.2285" y="-21.1406" width="66.1055" height="117.281" filterUnits="userSpaceOnUse" color-interpolation-filters="sRGB">
<feFlood flood-opacity="0" result="BackgroundImageFix"/>
<feColorMatrix in="SourceAlpha" type="matrix" values="0 0 0 0 0 0 0 0 0 0 0 0 0 0 0 0 0 0 127 0"/>
<feOffset/>
<feGaussianBlur stdDeviation="10.667"/>
<feColorMatrix type="matrix" values="0 0 0 0 0 0 0 0 0 0 0 0 0 0 0 0 0 0 0.25 0"/>
<feBlend mode="overlay" in2="BackgroundImageFix" result="effect1_dropShadow"/>
<feBlend mode="normal" in="SourceGraphic" in2="effect1_dropShadow" result="shape"/>
</filter>
<linearGradient id="paint0_linear" x1="37.4549" y1="0.193659" x2="37.4549" y2="74.8069" gradientUnits="userSpaceOnUse">
<stop stop-color="white"/>
<stop offset="1" stop-color="white" stop-opacity="0"/>
</linearGradient>
<clipPath id="clip0">
<rect width="75" height="75" fill="white"/>
</clipPath>
</defs>
</svg>
